<svg id="SvgjsSvg1104" width="288" height="288" xmlns="http://www.w3.org/2000/svg" version="1.1" xmlns:xlink="http://www.w3.org/1999/xlink" xmlns:svgjs="http://svgjs.com/svgjs"><defs id="SvgjsDefs1105"></defs><g id="SvgjsG1106"><svg xmlns="http://www.w3.org/2000/svg" viewBox="0 0 64 64" width="288" height="288"><g data-name="arrow-down arrow-load"><polygon fill="#232323" points="61 35 32 61 3 35 20 35 5 3 32 3 59 3 44 35 61 35" class="color78b9eb svgShape"></polygon><path fill="#363638" d="M61.934,34.643A1,1,0,0,0,61,34H45.573L59.905,3.424A1,1,0,0,0,59,2H5A1,1,0,0,0,4.1,3.424L18.427,34H3a1,1,0,0,0-.667,1.745l29,26a1,1,0,0,0,1.334,0l29-26A1,1,0,0,0,61.934,34.643ZM32,59.657,5.613,36H20a1,1,0,0,0,.905-1.424L6.573,4H57.427L43.1,34.576A1,1,0,0,0,44,36H58.387Z" class="color006df0 svgShape"></path></g></svg></g></svg>